<mxfile host="65bd71144e">
    <diagram id="v8a2AImK6Y1Kj5C-OFho" name="Page-1">
        <mxGraphModel dx="1586" dy="918" grid="1" gridSize="10" guides="1" tooltips="1" connect="1" arrows="1" fold="1" page="1" pageScale="1" pageWidth="827" pageHeight="1169" math="0" shadow="0">
            <root>
                <mxCell id="0"/>
                <mxCell id="1" parent="0"/>
                <mxCell id="FD6uZ6-jMCt1QQ3MNHTS-6" value="" style="edgeStyle=orthogonalEdgeStyle;orthogonalLoop=1;jettySize=auto;html=1;" parent="1" source="FD6uZ6-jMCt1QQ3MNHTS-4" target="FD6uZ6-jMCt1QQ3MNHTS-5" edge="1">
                    <mxGeometry relative="1" as="geometry"/>
                </mxCell>
                <mxCell id="FD6uZ6-jMCt1QQ3MNHTS-4" value="Start" style="ellipse;whiteSpace=wrap;html=1;" parent="1" vertex="1">
                    <mxGeometry x="354" y="20" width="96" height="40" as="geometry"/>
                </mxCell>
                <mxCell id="FD6uZ6-jMCt1QQ3MNHTS-8" value="" style="edgeStyle=orthogonalEdgeStyle;orthogonalLoop=1;jettySize=auto;html=1;" parent="1" source="FD6uZ6-jMCt1QQ3MNHTS-5" target="FD6uZ6-jMCt1QQ3MNHTS-7" edge="1">
                    <mxGeometry relative="1" as="geometry">
                        <Array as="points">
                            <mxPoint x="400" y="230"/>
                            <mxPoint x="400" y="230"/>
                        </Array>
                    </mxGeometry>
                </mxCell>
                <mxCell id="FD6uZ6-jMCt1QQ3MNHTS-5" value="Establish connection with database and load data" style="whiteSpace=wrap;html=1;" parent="1" vertex="1">
                    <mxGeometry x="342" y="130" width="120" height="60" as="geometry"/>
                </mxCell>
                <mxCell id="FD6uZ6-jMCt1QQ3MNHTS-7" value="Login or Register" style="shape=parallelogram;perimeter=parallelogramPerimeter;whiteSpace=wrap;html=1;fixedSize=1;" parent="1" vertex="1">
                    <mxGeometry x="342" y="270" width="120" height="60" as="geometry"/>
                </mxCell>
                <mxCell id="FD6uZ6-jMCt1QQ3MNHTS-27" value="" style="edgeStyle=orthogonalEdgeStyle;orthogonalLoop=1;jettySize=auto;html=1;" parent="1" source="FD6uZ6-jMCt1QQ3MNHTS-9" target="FD6uZ6-jMCt1QQ3MNHTS-26" edge="1">
                    <mxGeometry relative="1" as="geometry"/>
                </mxCell>
                <mxCell id="FD6uZ6-jMCt1QQ3MNHTS-9" value="Receive login details" style="shape=parallelogram;perimeter=parallelogramPerimeter;whiteSpace=wrap;html=1;fixedSize=1;" parent="1" vertex="1">
                    <mxGeometry x="510" y="270" width="150" height="60" as="geometry"/>
                </mxCell>
                <mxCell id="FD6uZ6-jMCt1QQ3MNHTS-13" value="" style="endArrow=classic;html=1;exitX=1;exitY=0.5;exitDx=0;exitDy=0;" parent="1" source="FD6uZ6-jMCt1QQ3MNHTS-7" target="FD6uZ6-jMCt1QQ3MNHTS-9" edge="1">
                    <mxGeometry relative="1" as="geometry">
                        <mxPoint x="460" y="300" as="sourcePoint"/>
                        <mxPoint x="550" y="299.8" as="targetPoint"/>
                    </mxGeometry>
                </mxCell>
                <mxCell id="FD6uZ6-jMCt1QQ3MNHTS-14" value="Login" style="edgeLabel;resizable=0;html=1;align=center;verticalAlign=middle;" parent="FD6uZ6-jMCt1QQ3MNHTS-13" connectable="0" vertex="1">
                    <mxGeometry relative="1" as="geometry"/>
                </mxCell>
                <mxCell id="FD6uZ6-jMCt1QQ3MNHTS-17" value="" style="endArrow=classic;html=1;entryX=0.5;entryY=1;entryDx=0;entryDy=0;" parent="1" source="FD6uZ6-jMCt1QQ3MNHTS-9" target="FD6uZ6-jMCt1QQ3MNHTS-19" edge="1">
                    <mxGeometry relative="1" as="geometry">
                        <mxPoint x="635" y="170" as="sourcePoint"/>
                        <mxPoint x="635" y="170" as="targetPoint"/>
                    </mxGeometry>
                </mxCell>
                <mxCell id="FD6uZ6-jMCt1QQ3MNHTS-18" value="Forgot Credentails?" style="edgeLabel;resizable=0;html=1;align=center;verticalAlign=middle;" parent="FD6uZ6-jMCt1QQ3MNHTS-17" connectable="0" vertex="1">
                    <mxGeometry relative="1" as="geometry"/>
                </mxCell>
                <mxCell id="FD6uZ6-jMCt1QQ3MNHTS-19" value="Receive email ID and verify" style="shape=parallelogram;perimeter=parallelogramPerimeter;whiteSpace=wrap;html=1;fixedSize=1;" parent="1" vertex="1">
                    <mxGeometry x="510" y="125" width="145" height="70" as="geometry"/>
                </mxCell>
                <mxCell id="FD6uZ6-jMCt1QQ3MNHTS-22" value="" style="endArrow=classic;html=1;entryX=-0.005;entryY=0.455;entryDx=0;entryDy=0;entryPerimeter=0;" parent="1" source="FD6uZ6-jMCt1QQ3MNHTS-19" edge="1" target="FD6uZ6-jMCt1QQ3MNHTS-23">
                    <mxGeometry width="50" height="50" relative="1" as="geometry">
                        <mxPoint x="655" y="210" as="sourcePoint"/>
                        <mxPoint x="700" y="160" as="targetPoint"/>
                    </mxGeometry>
                </mxCell>
                <mxCell id="FD6uZ6-jMCt1QQ3MNHTS-23" value="Send username and password with associated email from database" style="shape=cylinder3;whiteSpace=wrap;html=1;boundedLbl=1;backgroundOutline=1;size=15;" parent="1" vertex="1">
                    <mxGeometry x="690" y="110" width="110" height="110" as="geometry"/>
                </mxCell>
                <mxCell id="FD6uZ6-jMCt1QQ3MNHTS-25" value="" style="endArrow=classic;html=1;entryX=1;entryY=0.5;entryDx=0;entryDy=0;exitX=0.5;exitY=1;exitDx=0;exitDy=0;exitPerimeter=0;" parent="1" source="FD6uZ6-jMCt1QQ3MNHTS-23" target="FD6uZ6-jMCt1QQ3MNHTS-9" edge="1">
                    <mxGeometry width="50" height="50" relative="1" as="geometry">
                        <mxPoint x="755" y="270" as="sourcePoint"/>
                        <mxPoint x="755" y="290.71067811865476" as="targetPoint"/>
                        <Array as="points">
                            <mxPoint x="745" y="300"/>
                        </Array>
                    </mxGeometry>
                </mxCell>
                <mxCell id="FD6uZ6-jMCt1QQ3MNHTS-26" value="Verify email, phone number and unique username" style="whiteSpace=wrap;html=1;" parent="1" vertex="1">
                    <mxGeometry x="525" y="380" width="120" height="60" as="geometry"/>
                </mxCell>
                <mxCell id="FD6uZ6-jMCt1QQ3MNHTS-30" value="" style="endArrow=classic;html=1;entryX=1;entryY=0.5;entryDx=0;entryDy=0;" parent="1" source="FD6uZ6-jMCt1QQ3MNHTS-7" edge="1" target="2">
                    <mxGeometry relative="1" as="geometry">
                        <mxPoint x="242" y="300" as="sourcePoint"/>
                        <mxPoint x="242" y="300" as="targetPoint"/>
                    </mxGeometry>
                </mxCell>
                <mxCell id="FD6uZ6-jMCt1QQ3MNHTS-31" value="Register" style="edgeLabel;resizable=0;html=1;align=center;verticalAlign=middle;" parent="FD6uZ6-jMCt1QQ3MNHTS-30" connectable="0" vertex="1">
                    <mxGeometry relative="1" as="geometry"/>
                </mxCell>
                <mxCell id="4" value="" style="edgeStyle=orthogonalEdgeStyle;rounded=0;orthogonalLoop=1;jettySize=auto;html=1;" edge="1" parent="1" source="2" target="3">
                    <mxGeometry relative="1" as="geometry"/>
                </mxCell>
                <mxCell id="2" value="&amp;nbsp; Receive register details and send OTP to given email" style="shape=parallelogram;perimeter=parallelogramPerimeter;whiteSpace=wrap;html=1;fixedSize=1;" vertex="1" parent="1">
                    <mxGeometry x="90" y="270" width="180" height="60" as="geometry"/>
                </mxCell>
                <mxCell id="3" value="Verify received OTP" style="whiteSpace=wrap;html=1;" vertex="1" parent="1">
                    <mxGeometry x="120" y="410" width="120" height="60" as="geometry"/>
                </mxCell>
                <mxCell id="6" value="" style="endArrow=classic;html=1;entryX=0;entryY=0.75;entryDx=0;entryDy=0;" edge="1" parent="1" source="3" target="2">
                    <mxGeometry relative="1" as="geometry">
                        <mxPoint x="30" y="440" as="sourcePoint"/>
                        <mxPoint x="30" y="440" as="targetPoint"/>
                        <Array as="points">
                            <mxPoint x="40" y="440"/>
                            <mxPoint x="40" y="314"/>
                        </Array>
                    </mxGeometry>
                </mxCell>
                <mxCell id="7" value="OTP incorrect" style="edgeLabel;resizable=0;html=1;align=center;verticalAlign=middle;" connectable="0" vertex="1" parent="6">
                    <mxGeometry relative="1" as="geometry"/>
                </mxCell>
                <mxCell id="9" value="" style="endArrow=classic;html=1;entryX=0.5;entryY=0;entryDx=0;entryDy=0;entryPerimeter=0;" edge="1" parent="1" source="3" target="18">
                    <mxGeometry relative="1" as="geometry">
                        <mxPoint x="190" y="470" as="sourcePoint"/>
                        <mxPoint x="190" y="570" as="targetPoint"/>
                    </mxGeometry>
                </mxCell>
                <mxCell id="10" value="OTP correct" style="edgeLabel;resizable=0;html=1;align=center;verticalAlign=middle;" connectable="0" vertex="1" parent="9">
                    <mxGeometry relative="1" as="geometry"/>
                </mxCell>
                <mxCell id="11" value="" style="endArrow=classic;html=1;exitX=0.523;exitY=-0.006;exitDx=0;exitDy=0;exitPerimeter=0;" edge="1" parent="1" source="2">
                    <mxGeometry relative="1" as="geometry">
                        <mxPoint x="190" y="170" as="sourcePoint"/>
                        <mxPoint x="400" y="230" as="targetPoint"/>
                        <Array as="points">
                            <mxPoint x="184" y="230"/>
                        </Array>
                    </mxGeometry>
                </mxCell>
                <mxCell id="12" value="Back" style="edgeLabel;resizable=0;html=1;align=center;verticalAlign=middle;" connectable="0" vertex="1" parent="11">
                    <mxGeometry relative="1" as="geometry"/>
                </mxCell>
                <mxCell id="14" value="" style="endArrow=classic;html=1;exitX=0.25;exitY=0;exitDx=0;exitDy=0;" edge="1" parent="1" source="FD6uZ6-jMCt1QQ3MNHTS-9">
                    <mxGeometry relative="1" as="geometry">
                        <mxPoint x="585" y="170" as="sourcePoint"/>
                        <mxPoint x="400" y="230" as="targetPoint"/>
                        <Array as="points">
                            <mxPoint x="548" y="250"/>
                            <mxPoint x="470" y="250"/>
                            <mxPoint x="470" y="230"/>
                        </Array>
                    </mxGeometry>
                </mxCell>
                <mxCell id="17" value="Back" style="edgeLabel;html=1;align=center;verticalAlign=middle;resizable=0;points=[];" vertex="1" connectable="0" parent="14">
                    <mxGeometry x="-0.0933" relative="1" as="geometry">
                        <mxPoint as="offset"/>
                    </mxGeometry>
                </mxCell>
                <mxCell id="20" value="" style="edgeStyle=orthogonalEdgeStyle;rounded=0;orthogonalLoop=1;jettySize=auto;html=1;" edge="1" parent="1" source="18">
                    <mxGeometry relative="1" as="geometry">
                        <mxPoint x="460" y="300" as="targetPoint"/>
                        <Array as="points">
                            <mxPoint x="460" y="615"/>
                        </Array>
                    </mxGeometry>
                </mxCell>
                <mxCell id="18" value="Update new user in database" style="shape=cylinder3;whiteSpace=wrap;html=1;boundedLbl=1;backgroundOutline=1;size=15;" vertex="1" parent="1">
                    <mxGeometry x="135" y="570" width="90" height="90" as="geometry"/>
                </mxCell>
                <mxCell id="30" value="" style="endArrow=classic;html=1;" edge="1" parent="1" source="FD6uZ6-jMCt1QQ3MNHTS-26">
                    <mxGeometry relative="1" as="geometry">
                        <mxPoint x="425" y="410" as="sourcePoint"/>
                        <mxPoint x="280" y="300" as="targetPoint"/>
                        <Array as="points">
                            <mxPoint x="280" y="410"/>
                        </Array>
                    </mxGeometry>
                </mxCell>
                <mxCell id="31" value="Username not valid" style="edgeLabel;resizable=0;html=1;align=center;verticalAlign=middle;" connectable="0" vertex="1" parent="30">
                    <mxGeometry relative="1" as="geometry"/>
                </mxCell>
                <mxCell id="33" value="" style="endArrow=classic;html=1;" edge="1" parent="1" source="FD6uZ6-jMCt1QQ3MNHTS-26">
                    <mxGeometry relative="1" as="geometry">
                        <mxPoint x="645" y="410" as="sourcePoint"/>
                        <mxPoint x="710" y="300" as="targetPoint"/>
                        <Array as="points">
                            <mxPoint x="710" y="410"/>
                        </Array>
                    </mxGeometry>
                </mxCell>
                <mxCell id="34" value="Password incorrect" style="edgeLabel;resizable=0;html=1;align=center;verticalAlign=middle;" connectable="0" vertex="1" parent="33">
                    <mxGeometry relative="1" as="geometry"/>
                </mxCell>
                <mxCell id="36" value="" style="endArrow=classic;html=1;entryX=0.52;entryY=-0.038;entryDx=0;entryDy=0;entryPerimeter=0;" edge="1" parent="1" source="FD6uZ6-jMCt1QQ3MNHTS-26" target="38">
                    <mxGeometry relative="1" as="geometry">
                        <mxPoint x="585" y="440" as="sourcePoint"/>
                        <mxPoint x="585" y="540" as="targetPoint"/>
                    </mxGeometry>
                </mxCell>
                <mxCell id="37" value="All details valid" style="edgeLabel;resizable=0;html=1;align=center;verticalAlign=middle;" connectable="0" vertex="1" parent="36">
                    <mxGeometry relative="1" as="geometry"/>
                </mxCell>
                <mxCell id="38" value="Display home page" style="shape=parallelogram;perimeter=parallelogramPerimeter;whiteSpace=wrap;html=1;fixedSize=1;" vertex="1" parent="1">
                    <mxGeometry x="510" y="540" width="145" height="60" as="geometry"/>
                </mxCell>
                <mxCell id="42" value="" style="endArrow=classic;html=1;" edge="1" parent="1" source="38">
                    <mxGeometry relative="1" as="geometry">
                        <mxPoint x="582.5" y="600" as="sourcePoint"/>
                        <mxPoint x="80" y="800" as="targetPoint"/>
                        <Array as="points">
                            <mxPoint x="583" y="760"/>
                            <mxPoint x="80" y="760"/>
                            <mxPoint x="80" y="780"/>
                        </Array>
                    </mxGeometry>
                </mxCell>
                <mxCell id="46" value="" style="endArrow=classic;html=1;entryX=0.5;entryY=0;entryDx=0;entryDy=0;" edge="1" parent="1" source="38" target="51">
                    <mxGeometry relative="1" as="geometry">
                        <mxPoint x="582.5" y="600" as="sourcePoint"/>
                        <mxPoint x="280" y="800" as="targetPoint"/>
                        <Array as="points">
                            <mxPoint x="583" y="760"/>
                            <mxPoint x="280" y="760"/>
                        </Array>
                    </mxGeometry>
                </mxCell>
                <mxCell id="49" value="" style="endArrow=classic;html=1;" edge="1" parent="1" source="38">
                    <mxGeometry width="50" height="50" relative="1" as="geometry">
                        <mxPoint x="582.5" y="650" as="sourcePoint"/>
                        <mxPoint x="583" y="800" as="targetPoint"/>
                    </mxGeometry>
                </mxCell>
                <mxCell id="50" value="" style="endArrow=classic;html=1;entryX=0.5;entryY=0;entryDx=0;entryDy=0;" edge="1" parent="1" source="38" target="54">
                    <mxGeometry width="50" height="50" relative="1" as="geometry">
                        <mxPoint x="582.5" y="650" as="sourcePoint"/>
                        <mxPoint x="800" y="800" as="targetPoint"/>
                        <Array as="points">
                            <mxPoint x="583" y="760"/>
                            <mxPoint x="760" y="760"/>
                            <mxPoint x="760" y="780"/>
                        </Array>
                    </mxGeometry>
                </mxCell>
                <mxCell id="51" value="Item clicked &lt;br&gt;(buy)" style="shape=parallelogram;perimeter=parallelogramPerimeter;whiteSpace=wrap;html=1;fixedSize=1;" vertex="1" parent="1">
                    <mxGeometry x="220" y="800" width="120" height="60" as="geometry"/>
                </mxCell>
                <mxCell id="52" value="Orders button &lt;br&gt;clicked" style="shape=parallelogram;perimeter=parallelogramPerimeter;whiteSpace=wrap;html=1;fixedSize=1;" vertex="1" parent="1">
                    <mxGeometry x="30" y="800" width="120" height="60" as="geometry"/>
                </mxCell>
                <mxCell id="53" value="Sell button&lt;br&gt;clicked" style="shape=parallelogram;perimeter=parallelogramPerimeter;whiteSpace=wrap;html=1;fixedSize=1;" vertex="1" parent="1">
                    <mxGeometry x="525" y="800" width="120" height="60" as="geometry"/>
                </mxCell>
                <mxCell id="54" value="Your items&amp;nbsp;&lt;br&gt;button clicked" style="shape=parallelogram;perimeter=parallelogramPerimeter;whiteSpace=wrap;html=1;fixedSize=1;" vertex="1" parent="1">
                    <mxGeometry x="700" y="800" width="120" height="60" as="geometry"/>
                </mxCell>
            </root>
        </mxGraphModel>
    </diagram>
</mxfile>